<svg xmlns="http://www.w3.org/2000/svg" width="240" height="240" viewBox="0 0 240 240" role="img" aria-label="微信二维码占位图">
  <rect width="240" height="240" rx="14" fill="#ffffff"/>
  <g fill="#1f2937">
    <rect x="20" y="20" width="56" height="56" rx="6"/>
    <rect x="32" y="32" width="32" height="32" rx="4" fill="#ffffff"/>
    <rect x="40" y="40" width="16" height="16" rx="3" fill="#1f2937"/>
    <rect x="164" y="20" width="56" height="56" rx="6"/>
    <rect x="176" y="32" width="32" height="32" rx="4" fill="#ffffff"/>
    <rect x="184" y="40" width="16" height="16" rx="3" fill="#1f2937"/>
    <rect x="20" y="164" width="56" height="56" rx="6"/>
    <rect x="32" y="176" width="32" height="32" rx="4" fill="#ffffff"/>
    <rect x="40" y="184" width="16" height="16" rx="3" fill="#1f2937"/>
    <rect x="94" y="24" width="12" height="12" rx="2"/>
    <rect x="118" y="24" width="12" height="12" rx="2"/>
    <rect x="94" y="48" width="12" height="12" rx="2"/>
    <rect x="130" y="48" width="12" height="12" rx="2"/>
    <rect x="24" y="94" width="12" height="12" rx="2"/>
    <rect x="48" y="94" width="12" height="12" rx="2"/>
    <rect x="72" y="94" width="12" height="12" rx="2"/>
    <rect x="96" y="94" width="12" height="12" rx="2"/>
    <rect x="120" y="94" width="12" height="12" rx="2"/>
    <rect x="144" y="94" width="12" height="12" rx="2"/>
    <rect x="168" y="94" width="12" height="12" rx="2"/>
    <rect x="192" y="94" width="12" height="12" rx="2"/>
    <rect x="96" y="118" width="12" height="12" rx="2"/>
    <rect x="132" y="118" width="12" height="12" rx="2"/>
    <rect x="180" y="118" width="12" height="12" rx="2"/>
    <rect x="24" y="142" width="12" height="12" rx="2"/>
    <rect x="60" y="142" width="12" height="12" rx="2"/>
    <rect x="96" y="142" width="12" height="12" rx="2"/>
    <rect x="120" y="142" width="12" height="12" rx="2"/>
    <rect x="156" y="142" width="12" height="12" rx="2"/>
    <rect x="192" y="142" width="12" height="12" rx="2"/>
    <rect x="94" y="166" width="12" height="12" rx="2"/>
    <rect x="130" y="166" width="12" height="12" rx="2"/>
    <rect x="168" y="166" width="12" height="12" rx="2"/>
    <rect x="96" y="190" width="12" height="12" rx="2"/>
    <rect x="132" y="190" width="12" height="12" rx="2"/>
    <rect x="156" y="190" width="12" height="12" rx="2"/>
    <rect x="192" y="190" width="12" height="12" rx="2"/>
    <rect x="94" y="70" width="52" height="12" rx="2"/>
    <rect x="70" y="70" width="12" height="12" rx="2"/>
    <rect x="70" y="118" width="12" height="12" rx="2"/>
    <rect x="70" y="166" width="12" height="12" rx="2"/>
  </g>
  <circle cx="120" cy="120" r="30" fill="#ffffff"/>
  <circle cx="120" cy="120" r="26" fill="#07c160"/>
  <path d="M108 112c0-5 4-9 9-9h.5l-1.5 3.5-2.5 6c-.6 1.5.2 3 1.7 3.4l1.8.5c-.8 1.4-2.4 2.4-4.2 2.4-3.2 0-5.8-2.6-5.8-5.8z" fill="#ffffff"/>
  <text x="120" y="182" text-anchor="middle" font-family="PingFang SC,Microsoft YaHei,sans-serif" font-size="15" font-weight="700" fill="#6b7280">二维码占位图</text>
  <text x="120" y="204" text-anchor="middle" font-family="PingFang SC,Microsoft YaHei,sans-serif" font-size="12.5" fill="#9ca3af">请替换为您自己的微信二维码</text>
</svg>
